<svg width="800" height="800" viewBox="0 0 800 800" fill="none" xmlns="http://www.w3.org/2000/svg">
<path d="M409.763 100H400C234.315 100 100 234.315 100 400C100 565.685 234.315 700 400 700C565.685 700 700 565.685 700 400C700 327.698 674.313 259.319 628.352 205.427C608.33 181.95 584.798 161.656 558.624 145.321C550.815 140.447 540.534 142.827 535.66 150.636C530.787 158.445 533.167 168.726 540.976 173.599C564.25 188.124 585.18 206.175 602.99 227.057C643.853 274.971 666.667 335.702 666.667 400C666.667 547.276 547.276 666.667 400 666.667C252.724 666.667 133.333 547.276 133.333 400C133.333 252.724 252.724 133.333 400 133.333H409.763L371.548 171.548C365.039 178.057 365.039 188.61 371.548 195.118C378.057 201.627 388.61 201.627 395.118 195.118L461.785 128.452C468.294 121.943 468.294 111.39 461.785 104.882L395.118 38.2149C388.61 31.7062 378.057 31.7062 371.548 38.2149C365.039 44.7237 365.039 55.2764 371.548 61.7852L409.763 100Z" fill="black"/>
</svg>
