<svg width="64" height="64" viewBox="0 0 64 64" fill="none" xmlns="http://www.w3.org/2000/svg">
<g clip-path="url(#clip0_18_4)">
<mask id="mask0_18_4" style="mask-type:luminance" maskUnits="userSpaceOnUse" x="0" y="0" width="64" height="64">
<path d="M64 0H0V64H64V0Z" fill="white"/>
</mask>
<g mask="url(#mask0_18_4)">
<path d="M64 0H0V64H64V0Z" fill="white" stroke="white" stroke-width="2.66667"/>
<path d="M8 42.6667V21.3334H16L29.3333 10.6667V53.3334L16 42.6667H8Z" stroke="black" stroke-width="2.66667" stroke-linecap="round" stroke-linejoin="round"/>
<path d="M34.6667 24C34.6667 24 40 25.3333 40 32C40 38.6667 34.6667 40 34.6667 40" stroke="black" stroke-width="2.66667" stroke-linecap="round" stroke-linejoin="round"/>
<path d="M40 18.6667C40 18.6667 48 20.8889 48 32C48 43.1112 40 45.3334 40 45.3334" stroke="black" stroke-width="2.66667" stroke-linecap="round" stroke-linejoin="round"/>
<path d="M45.3333 13.3333C45.3333 13.3333 56 16.4444 56 32C56 47.5554 45.3333 50.6666 45.3333 50.6666" stroke="black" stroke-width="2.66667" stroke-linecap="round" stroke-linejoin="round"/>
</g>
</g>
<defs>
<clipPath id="clip0_18_4">
<rect width="64" height="64" fill="white"/>
</clipPath>
</defs>
</svg>
