<svg width="789" height="300" viewBox="0 0 789 300" fill="none" xmlns="http://www.w3.org/2000/svg">
<g clip-path="url(#clip0_1_61)">
<path fill-rule="evenodd" clip-rule="evenodd" d="M119.819 30.6883V1.88529C119.819 -0.158019 117.021 -0.738195 116.209 1.13665L104.757 27.565L44.7563 166.027L39.3694 178.458C38.8306 179.701 39.7421 181.09 41.097 181.09H52.384C53.1345 181.09 53.8133 180.644 54.1117 179.955L101.829 69.8379C102.641 67.9632 105.439 68.5437 105.439 70.5866V179.207C105.439 180.247 106.282 181.09 107.322 181.09H117.936C118.976 181.09 119.819 180.247 119.819 179.207V166.027V30.6883Z" fill="#288BE8"/>
<path fill-rule="evenodd" clip-rule="evenodd" d="M105.439 269.02V297.823C105.439 299.866 108.237 300.447 109.05 298.572L120.502 272.143L180.502 133.682L185.889 121.251C186.428 120.008 185.516 118.619 184.162 118.619H172.875C172.124 118.619 171.445 119.065 171.147 119.753L123.429 229.87C122.617 231.746 119.819 231.165 119.819 229.122V120.502C119.819 119.462 118.976 118.619 117.936 118.619H107.322C106.282 118.619 105.439 119.462 105.439 120.502V133.682V269.02Z" fill="#288BE8"/>
<path fill-rule="evenodd" clip-rule="evenodd" d="M0 142.405C0 88.5916 37.6263 43.566 88.0061 32.2019C88.9895 31.98 89.8023 32.9628 89.4119 33.8925L84.8096 44.8513C84.6628 45.2 84.3659 45.4639 84.0038 45.5722C42.3143 58.0252 11.9247 96.6658 11.9247 142.405C11.9247 190.758 45.8874 231.178 91.259 241.113C91.8402 241.24 92.2594 241.752 92.2594 242.347V251.972C92.2594 252.757 91.5439 253.349 90.7738 253.196C39.0109 242.883 0 197.2 0 142.405ZM143.883 248.994C143.478 249.96 144.364 250.962 145.367 250.662C191.97 236.736 225.941 193.538 225.941 142.405C225.941 87.3866 186.611 41.5545 134.533 31.4896C133.765 31.3412 133.054 31.9326 133.054 32.7145V42.3274C133.054 42.925 133.479 43.4394 134.063 43.5635C179.745 53.2641 214.017 93.8322 214.017 142.405C214.017 185.334 187.246 222.01 149.488 236.65C149.168 236.775 148.911 237.023 148.779 237.339L143.883 248.994Z" fill="#5B5B5B"/>
<path fill-rule="evenodd" clip-rule="evenodd" d="M282.551 180.927L312.503 106.349C313.423 104.106 315.115 102.966 317.578 102.929H320.999C323.499 102.929 325.191 104.069 326.073 106.349L356.026 180.927C356.136 181.148 356.192 181.314 356.192 181.423C356.192 181.828 355.824 182.03 355.088 182.03H346.979C346.377 182.03 345.886 181.784 345.505 181.29L319.243 115.189L293.048 181.343C292.69 181.801 292.207 182.03 291.597 182.03H283.489C282.79 182.03 282.441 181.828 282.441 181.423C282.404 181.314 282.441 181.148 282.551 180.927ZM438.547 180.927V104.087C438.547 103.315 438.915 102.929 439.651 102.929H447.594C448.329 102.929 448.697 103.315 448.697 104.087V174.142H493.212C493.985 174.142 494.371 174.51 494.371 175.246V180.927C494.371 181.663 493.985 182.03 493.212 182.03H439.651C438.915 182.03 438.547 181.663 438.547 180.927ZM566.743 104.087C566.632 103.866 566.596 103.683 566.632 103.536C566.632 103.131 566.982 102.929 567.68 102.929H575.789C576.525 102.929 577.094 103.315 577.499 104.087L603.48 169.012L629.46 104.087C629.83 103.352 630.402 102.966 631.174 102.929H639.282C640.312 102.929 640.625 103.315 640.217 104.087L610.265 178.666C609.346 180.909 607.654 182.03 605.19 182.03H601.77C599.269 182.03 597.578 180.909 596.696 178.666L566.743 104.087ZM714.904 180.927L744.86 106.349C745.776 104.106 747.471 102.966 749.937 102.929H753.351C755.856 102.929 757.544 104.069 758.429 106.349L788.379 180.927C788.492 181.148 788.548 181.314 788.548 181.423C788.548 181.828 788.178 182.03 787.443 182.03H779.335C778.908 182.03 778.531 181.905 778.217 181.656L751.669 115.503L725.272 181.494C724.933 181.851 724.494 182.03 723.954 182.03H715.845C715.148 182.03 714.797 181.828 714.797 181.423C714.759 181.314 714.797 181.148 714.904 180.927Z" fill="#5B5B5B"/>
</g>
<defs>
<clipPath id="clip0_1_61">
<rect width="788.912" height="300" fill="white"/>
</clipPath>
</defs>
</svg>
