<svg width="40" height="40" viewBox="0 0 40 40" fill="none" xmlns="http://www.w3.org/2000/svg">
<path d="M16.15 10C16.15 9.75277 16.2233 9.5111 16.3607 9.30554C16.498 9.09998 16.6932 8.93976 16.9216 8.84515C17.1501 8.75054 17.4014 8.72579 17.6439 8.77402C17.8863 8.82225 18.1091 8.9413 18.2839 9.11612C18.4587 9.29093 18.5778 9.51366 18.626 9.75614C18.6742 9.99861 18.6495 10.2499 18.5549 10.4784C18.4602 10.7068 18.3 10.902 18.0945 11.0393C17.8889 11.1767 17.6472 11.25 17.4 11.25C17.0698 11.2457 16.7544 11.1126 16.5209 10.8791C16.2874 10.6456 16.1543 10.3302 16.15 10ZM22.5333 11.25C22.7806 11.25 23.0222 11.1767 23.2278 11.0393C23.4334 10.902 23.5936 10.7068 23.6882 10.4784C23.7828 10.2499 23.8075 9.99861 23.7593 9.75614C23.7111 9.51366 23.592 9.29093 23.4172 9.11612C23.2424 8.9413 23.0197 8.82225 22.7772 8.77402C22.5347 8.72579 22.2834 8.75054 22.055 8.84515C21.8266 8.93976 21.6313 9.09998 21.494 9.30554C21.3566 9.5111 21.2833 9.75277 21.2833 10C21.2877 10.3302 21.4207 10.6456 21.6542 10.8791C21.8877 11.1126 22.2032 11.2457 22.5333 11.25ZM20 16.1833C20.3296 16.1833 20.6519 16.0856 20.926 15.9024C21.2 15.7193 21.4137 15.459 21.5398 15.1545C21.6659 14.8499 21.699 14.5148 21.6346 14.1915C21.5703 13.8682 21.4116 13.5712 21.1785 13.3382C20.9454 13.1051 20.6485 12.9463 20.3252 12.882C20.0019 12.8177 19.6667 12.8507 19.3622 12.9769C19.0577 13.103 18.7974 13.3166 18.6142 13.5907C18.4311 13.8648 18.3333 14.187 18.3333 14.5167C18.3333 14.9587 18.5089 15.3826 18.8215 15.6952C19.1341 16.0077 19.558 16.1833 20 16.1833ZM14.75 16.1833C15.0796 16.1833 15.4019 16.0856 15.676 15.9024C15.95 15.7193 16.1637 15.459 16.2898 15.1545C16.4159 14.8499 16.449 14.5148 16.3846 14.1915C16.3203 13.8682 16.1616 13.5712 15.9285 13.3382C15.6954 13.1051 15.3985 12.9463 15.0752 12.882C14.7519 12.8177 14.4167 12.8507 14.1122 12.9769C13.8077 13.103 13.5474 13.3166 13.3642 13.5907C13.1811 13.8648 13.0833 14.187 13.0833 14.5167C13.0833 14.9587 13.2589 15.3826 13.5715 15.6952C13.884 16.0077 14.308 16.1833 14.75 16.1833ZM25.25 16.1833C25.5796 16.1833 25.9019 16.0856 26.176 15.9024C26.45 15.7193 26.6637 15.459 26.7898 15.1545C26.9159 14.8499 26.949 14.5148 26.8846 14.1915C26.8203 13.8682 26.6616 13.5712 26.4285 13.3382C26.1954 13.1051 25.8985 12.9463 25.5752 12.882C25.2519 12.8177 24.9167 12.8507 24.6122 12.9769C24.3077 13.103 24.0474 13.3166 23.8642 13.5907C23.6811 13.8648 23.5833 14.187 23.5833 14.5167C23.5833 14.7355 23.6264 14.9523 23.7102 15.1545C23.794 15.3567 23.9167 15.5404 24.0715 15.6952C24.2263 15.8499 24.41 15.9727 24.6122 16.0565C24.8144 16.1402 25.0311 16.1833 25.25 16.1833ZM17.3667 17.4667C17.037 17.4667 16.7148 17.5644 16.4407 17.7476C16.1666 17.9307 15.953 18.191 15.8269 18.4955C15.7007 18.8001 15.6677 19.1352 15.732 19.4585C15.7963 19.7818 15.9551 20.0788 16.1882 20.3118C16.4212 20.5449 16.7182 20.7037 17.0415 20.768C17.3648 20.8323 17.6999 20.7993 18.0045 20.6731C18.309 20.547 18.5693 20.3334 18.7525 20.0593C18.9356 19.7852 19.0333 19.463 19.0333 19.1333C19.0333 18.6913 18.8577 18.2674 18.5452 17.9548C18.2326 17.6423 17.8087 17.4667 17.3667 17.4667ZM22.6333 17.4667C22.3037 17.4667 21.9815 17.5644 21.7074 17.7476C21.4333 17.9307 21.2197 18.191 21.0935 18.4955C20.9674 18.8001 20.9344 19.1352 20.9987 19.4585C21.063 19.7818 21.2217 20.0788 21.4548 20.3118C21.6879 20.5449 21.9849 20.7037 22.3082 20.768C22.6315 20.8323 22.9666 20.7993 23.2711 20.6731C23.5757 20.547 23.836 20.3334 24.0191 20.0593C24.2023 19.7852 24.3 19.463 24.3 19.1333C24.3 18.6913 24.1244 18.2674 23.8118 17.9548C23.4993 17.6423 23.0754 17.4667 22.6333 17.4667ZM18.3333 30C18.3333 30.4945 18.1867 30.9778 17.912 31.3889C17.6373 31.8 17.2469 32.1205 16.79 32.3097C16.3332 32.4989 15.8306 32.5484 15.3456 32.452C14.8607 32.3555 14.4152 32.1174 14.0656 31.7678C13.7159 31.4181 13.4778 30.9727 13.3814 30.4877C13.2849 30.0028 13.3344 29.5001 13.5236 29.0433C13.7129 28.5865 14.0333 28.196 14.4444 27.9213C14.8555 27.6466 15.3389 27.5 15.8333 27.5C16.4964 27.5 17.1323 27.7634 17.6011 28.2322C18.0699 28.7011 18.3333 29.337 18.3333 30ZM16.6667 30C16.6667 29.8352 16.6178 29.6741 16.5262 29.537C16.4347 29.4 16.3045 29.2932 16.1522 29.2301C16 29.167 15.8324 29.1505 15.6708 29.1827C15.5091 29.2148 15.3606 29.2942 15.2441 29.4107C15.1275 29.5273 15.0482 29.6758 15.016 29.8374C14.9839 29.9991 15.0004 30.1666 15.0634 30.3189C15.1265 30.4712 15.2333 30.6013 15.3704 30.6929C15.5074 30.7845 15.6685 30.8333 15.8333 30.8333C16.0543 30.8333 16.2663 30.7455 16.4226 30.5893C16.5789 30.433 16.6667 30.221 16.6667 30ZM26.6667 30C26.6667 30.4945 26.52 30.9778 26.2453 31.3889C25.9706 31.8 25.5802 32.1205 25.1234 32.3097C24.6666 32.4989 24.1639 32.5484 23.6789 32.452C23.194 32.3555 22.7485 32.1174 22.3989 31.7678C22.0493 31.4181 21.8112 30.9727 21.7147 30.4877C21.6182 30.0028 21.6678 29.5001 21.857 29.0433C22.0462 28.5865 22.3666 28.196 22.7777 27.9213C23.1889 27.6466 23.6722 27.5 24.1667 27.5C24.8297 27.5 25.4656 27.7634 25.9344 28.2322C26.4033 28.7011 26.6667 29.337 26.6667 30ZM25 30C25 29.8352 24.9511 29.6741 24.8596 29.537C24.768 29.4 24.6378 29.2932 24.4856 29.2301C24.3333 29.167 24.1657 29.1505 24.0041 29.1827C23.8424 29.2148 23.694 29.2942 23.5774 29.4107C23.4609 29.5273 23.3815 29.6758 23.3493 29.8374C23.3172 29.9991 23.3337 30.1666 23.3968 30.3189C23.4598 30.4712 23.5667 30.6013 23.7037 30.6929C23.8407 30.7845 24.0019 30.8333 24.1667 30.8333C24.3877 30.8333 24.5996 30.7455 24.7559 30.5893C24.9122 30.433 25 30.221 25 30ZM31.6667 30C31.6667 31.7681 30.9643 33.4638 29.714 34.714C28.4638 35.9643 26.7681 36.6667 25 36.6667H15C13.3952 36.6667 11.8443 36.0878 10.632 35.0364C9.41966 33.9849 8.62729 32.5314 8.40034 30.9428C8.17339 29.3542 8.5271 27.737 9.39653 26.3881C10.266 25.0393 11.5928 24.0493 13.1333 23.6C10.6644 21.8052 8.99713 19.1143 8.48926 16.1044C7.98139 13.0946 8.67333 10.0056 10.4167 7.5C11.0817 6.55755 11.8787 5.7156 12.7833 5H27.2167C28.1213 5.7156 28.9183 6.55755 29.5833 7.5C31.3267 10.0056 32.0186 13.0946 31.5107 16.1044C31.0029 19.1143 29.3356 21.8052 26.8667 23.6C28.2514 24.0039 29.4679 24.846 30.3333 26C31.1988 27.154 31.6667 28.5575 31.6667 30ZM20 23.3333C22.4312 23.3333 24.7627 22.3676 26.4818 20.6485C28.2009 18.9294 29.1667 16.5978 29.1667 14.1667C29.17 12.2912 28.5873 10.4615 27.5 8.93333C27.1446 8.41031 26.7308 7.92944 26.2667 7.5H13.7167C13.252 7.93373 12.8332 8.41402 12.4667 8.93333C11.5104 10.3086 10.9492 11.9195 10.844 13.5913C10.7389 15.263 11.0938 16.9316 11.8703 18.4159C12.6468 19.9001 13.8151 21.1432 15.2483 22.0101C16.6816 22.877 18.325 23.3347 20 23.3333ZM29.1667 30C29.1667 28.8949 28.7277 27.8351 27.9463 27.0537C27.1649 26.2723 26.1051 25.8333 25 25.8333H15C13.8949 25.8333 12.8351 26.2723 12.0537 27.0537C11.2723 27.8351 10.8333 28.8949 10.8333 30C10.8333 31.1051 11.2723 32.1649 12.0537 32.9463C12.8351 33.7277 13.8949 34.1667 15 34.1667H25C25.5472 34.1667 26.089 34.0589 26.5945 33.8495C27.1 33.6401 27.5594 33.3332 27.9463 32.9463C28.3332 32.5594 28.6401 32.1 28.8495 31.5945C29.0589 31.089 29.1667 30.5472 29.1667 30Z" fill="black"/>
</svg>
