<svg width="34" height="34" viewBox="0 0 34 34" fill="none" xmlns="http://www.w3.org/2000/svg">
<path d="M17 33.6667C20.2964 33.6667 23.5187 32.6892 26.2595 30.8578C29.0003 29.0265 31.1365 26.4235 32.398 23.378C33.6595 20.3326 33.9895 16.9815 33.3464 13.7485C32.7033 10.5155 31.116 7.54575 28.7851 5.21487C26.4542 2.884 23.4845 1.29665 20.2515 0.653566C17.0185 0.0104788 13.6674 0.340534 10.6219 1.60199C7.57651 2.86346 4.97353 4.99966 3.14217 7.74048C1.31082 10.4813 0.333332 13.7036 0.333332 17C0.333332 21.4203 2.08928 25.6595 5.21489 28.7851C6.76253 30.3327 8.59985 31.5604 10.6219 32.398C12.644 33.2356 14.8113 33.6667 17 33.6667ZM17 30.3333C16.5055 30.3333 16.0222 30.1867 15.6111 29.912C15.2 29.6373 14.8795 29.2468 14.6903 28.79C14.5011 28.3332 14.4516 27.8305 14.548 27.3456C14.6445 26.8606 14.8826 26.4152 15.2322 26.0656C15.5819 25.7159 16.0273 25.4778 16.5123 25.3814C16.9972 25.2849 17.4999 25.3344 17.9567 25.5236C18.4135 25.7128 18.804 26.0333 19.0787 26.4444C19.3534 26.8555 19.5 27.3389 19.5 27.8333C19.5 28.4964 19.2366 29.1322 18.7678 29.6011C18.2989 30.0699 17.663 30.3333 17 30.3333ZM10.3333 11.99C10.3088 10.7095 10.6623 9.45024 11.3498 8.36968C12.0372 7.28913 13.0281 6.43529 14.1983 5.91499C15.2361 5.45152 16.3738 5.25684 17.5066 5.34888C18.6393 5.44092 19.7307 5.81674 20.68 6.44165C21.5553 7.0212 22.2815 7.79927 22.7992 8.71253C23.3169 9.62579 23.6117 10.6484 23.6595 11.6971C23.7072 12.7459 23.5066 13.791 23.074 14.7476C22.6414 15.7041 21.989 16.545 21.17 17.2017C20.0214 18.0868 19.1952 19.3247 18.8183 20.725C18.7145 21.1546 18.4442 21.5254 18.0669 21.7558C17.6896 21.9861 17.2363 22.0572 16.8067 21.9533C16.377 21.8494 16.0062 21.5791 15.7759 21.2019C15.5455 20.8246 15.4745 20.3713 15.5783 19.9417C16.1208 17.8247 17.3522 15.9485 19.0783 14.6083C19.4886 14.2802 19.8155 13.8597 20.0323 13.3811C20.2492 12.9026 20.3499 12.3796 20.3261 11.8548C20.3024 11.3299 20.155 10.8181 19.8958 10.3611C19.6367 9.90409 19.2732 9.5148 18.835 9.22499C18.3441 8.90367 17.779 8.71351 17.1937 8.67266C16.6084 8.63181 16.0224 8.74164 15.4917 8.99165C14.9288 9.26105 14.4562 9.68777 14.1308 10.2202C13.8054 10.7526 13.6413 11.3679 13.6583 11.9917C13.6296 12.4123 13.4425 12.8065 13.1347 13.0947C12.8269 13.3829 12.4214 13.5437 11.9997 13.5448C11.5781 13.5458 11.1717 13.387 10.8625 13.1004C10.5532 12.8137 10.3642 12.4205 10.3333 12V11.99Z" fill="#4A79FF"/>
</svg>
