<svg width="96" height="96" viewBox="0 0 96 96" fill="none" xmlns="http://www.w3.org/2000/svg">
<g opacity="0.5">
<path fill-rule="evenodd" clip-rule="evenodd" d="M50.9988 88C71.6896 86.4644 88 69.1672 88 48.0556V48.0276V48C88 25.9086 70.0912 8 48 8C25.9086 8 8 25.9086 8 48V48.0276V48.0556C8 69.1672 24.3104 86.4644 45.0012 88V87.8892C24.3194 86.3564 8.01428 69.0976 8 48.0276C8.01496 25.9184 25.9178 8 48 8C70.082 8 87.9852 25.9184 88 48.0276C87.9856 69.0976 71.6804 86.3564 50.9988 87.8892V88Z" fill="#4A79FF"/>
<path d="M45.0012 87.8892C45.9912 87.9628 46.9912 88 48 88C49.0088 88 50.0088 87.9628 50.9988 87.8892C71.6804 86.3564 87.9856 69.0976 88 48.0276C87.9852 25.9184 70.082 8 48 8C25.9178 8 8.01496 25.9184 8 48.0276C8.01428 69.0976 24.3194 86.3564 45.0012 87.8892Z" fill="#4A79FF"/>
</g>
<path d="M34 50.0588C34 56.77 38.7095 62.38 44.9996 63.7556L45.0012 87.8896C45.9912 87.9632 46.9912 88.0004 48 88.0004C49.0088 88.0004 50.0088 87.9632 50.9988 87.8896L50.9996 63.7556C57.2904 62.3804 62 56.7704 62 50.0588V48.056C62 45.8436 60.2092 44.0504 58 44.0504H57V36.0393C57 34.3802 55.6568 33.0352 54 33.0352C52.3432 33.0352 51 34.3802 51 36.0393V44.0504H45V36.0393C45 34.3802 43.6568 33.0352 42 33.0352C40.3432 33.0352 39 34.3802 39 36.0393V44.0504H38C35.7909 44.0504 34 45.8436 34 48.056V50.0588Z" fill="#4A79FF"/>
</svg>
