<svg width="64" height="64" viewBox="0 0 64 64" fill="none" xmlns="http://www.w3.org/2000/svg">
<path fill-rule="evenodd" clip-rule="evenodd" d="M44 18.8347C44 27.3547 38.8533 34.6667 32 34.6667C25.1413 34.6667 20 27.3547 20 18.832C20 10.3147 24.4267 5.33334 32 5.33334C39.5733 5.33334 44 10.312 44 18.8347ZM10.9387 53.712C11.9653 54.9333 16.3867 58.6667 32 58.6667C47.6133 58.6667 52.032 54.9333 53.0613 53.7147C53.1568 53.5975 53.2273 53.4622 53.2686 53.3168C53.3099 53.1714 53.321 53.0192 53.3013 52.8693C53.0667 50.5173 50.9493 40 32 40C13.0507 40 10.9333 50.5173 10.696 52.8693C10.6767 53.0193 10.6883 53.1717 10.73 53.3171C10.7717 53.4625 10.8427 53.5951 10.9387 53.712Z" fill="#4A79FF"/>
</svg>
