<svg width="35" height="35" viewBox="0 0 35 35" fill="none" xmlns="http://www.w3.org/2000/svg">
<g clip-path="url(#clip0_24_87)">
<path d="M34.988 9.92907C35.0044 9.12079 34.7867 7.23407 32.3269 6.57782L7.63438 1.63516C5.82422 1.63516 4.35313 3.10626 4.35313 4.91641V9.31547L3.25938 9.31329C1.45578 9.32094 -0.00984192 10.7877 -0.00984192 12.5934V30.0869C-0.00984192 31.8959 1.46125 33.3681 3.27141 33.3681H31.7242C33.5333 33.3681 35.0055 31.8959 35.0055 30.0869L34.988 9.92907ZM6.54172 4.91532C6.54172 4.34438 6.98141 3.87407 7.54031 3.82594L31.6717 8.70954C31.6805 8.71391 31.4923 9.32204 30.6163 9.3111H6.54172V4.91532ZM32.8213 30.0858C32.8213 30.6895 32.3313 31.1795 31.7275 31.1795H3.2736C2.66985 31.1795 2.17985 30.6895 2.17985 30.0858V12.5913C2.17985 11.9875 2.66985 11.4975 3.2736 11.4975H30.6195C31.6936 11.4975 32.8202 11.1311 32.8202 10.4081L32.8213 30.0858ZM6.55703 19.1581C5.34953 19.1581 4.36953 20.137 4.36953 21.3456C4.36953 22.5542 5.34953 23.5331 6.55703 23.5331C7.76453 23.5331 8.74453 22.5542 8.74453 21.3456C8.74453 20.137 7.76453 19.1581 6.55703 19.1581Z" fill="#4A79FF"/>
</g>
<defs>
<clipPath id="clip0_24_87">
<rect width="35" height="35" fill="white"/>
</clipPath>
</defs>
</svg>
