<svg width="53" height="64" viewBox="0 0 53 64" fill="none" xmlns="http://www.w3.org/2000/svg">
<path d="M26.3535 0C11.7989 0 0 11.8008 0 26.3535C0 40.9062 20.7129 64 26.3535 64C31.9921 64 52.707 40.9062 52.707 26.3535C52.707 11.8008 40.9082 0 26.3535 0ZM26.3535 38.4492C19.6719 38.4492 14.2577 33.0332 14.2577 26.3535C14.2577 19.6719 19.6719 14.2577 26.3535 14.2577C33.0332 14.2577 38.4492 19.6719 38.4492 26.3535C38.4492 33.0332 33.0332 38.4492 26.3535 38.4492Z" fill="#4A79FF"/>
<circle cx="26.3535" cy="25" r="16" fill="white"/>
<circle cx="19.3535" cy="47" r="4" fill="#00FF38"/>
<circle cx="32.3535" cy="47" r="4" fill="#00FF38"/>
</svg>
