<svg width="62" height="75" viewBox="0 0 62 75" fill="none" xmlns="http://www.w3.org/2000/svg">
<path d="M30.883 0C13.8268 0 0 13.829 0 30.883C0 47.937 24.2729 75 30.883 75C37.4908 75 61.766 47.937 61.766 30.883C61.766 13.829 47.9394 0 30.883 0ZM30.883 45.0577C23.053 45.0577 16.7083 38.7108 16.7083 30.883C16.7083 23.053 23.053 16.7083 30.883 16.7083C38.7108 16.7083 45.0577 23.053 45.0577 30.883C45.0577 38.7108 38.7108 45.0577 30.883 45.0577Z" fill="#4A79FF"/>
<circle cx="30.75" cy="29.75" r="18.75" fill="white"/>
<circle cx="23.7619" cy="55.7619" r="4.7619" fill="#FFF500"/>
<circle cx="39.2381" cy="55.7619" r="4.7619" fill="#00FF38"/>
</svg>
